<svg width="380" height="380" viewBox="0 0 380 380" fill="none" xmlns="http://www.w3.org/2000/svg">
<rect width="380" height="380" rx="113" fill="white"/>
<path d="M7.42527 192.535C9.29096 192.722 11.1567 192.908 13.0223 193.095C13.389 190.21 13.7497 187.215 14.1196 184.342C18.1838 131.569 47.4772 83.3531 94.013 60.6005C96.5038 59.2784 99.0163 58.0129 101.64 56.7569C99.3608 52.3065 97.0818 47.8561 94.8029 43.4056C92.0646 44.8959 89.4439 46.3972 86.8459 47.9596C37.9277 74.8327 8.94199 130.353 8.05679 183.728C7.83986 186.642 7.63401 189.66 7.42527 192.535Z" fill="#1F2937"/>
<path d="M143.179 37.3395C143.318 39.2094 143.457 41.0792 143.596 42.9491C147.72 42.7154 151.754 42.4114 155.901 42.1605C229.416 33.0788 303.658 72.2442 331.012 140.108C332.652 143.645 334.246 147.307 335.793 151.101C340.386 149.125 344.979 147.149 349.572 145.173C347.79 141.227 345.955 137.415 344.071 133.734C312.65 62.443 229.172 23.4072 155.414 36.0862C151.24 36.4962 147.194 36.9578 143.179 37.3395Z" fill="#1F2937"/>
<path d="M28.9151 256.221C28.3559 255.753 27.9814 255.091 27.8884 254.362C27.7953 253.633 27.989 252.899 28.4297 252.32C28.8705 251.74 29.5251 251.357 30.2523 251.251C30.9796 251.146 31.7178 251.329 32.3187 251.743C32.3187 251.743 32.3187 251.743 32.3187 251.743C37.9117 255.597 43.2499 259.917 48.134 264.763C62.4582 278.935 71.6022 296.494 82.4351 311.943L75.6699 309.633C114.795 292.909 167.335 304.132 192.065 343.117C192.088 343.156 192.11 343.195 192.133 343.234L185.647 339.5C186.274 339.5 186.9 339.5 187.526 339.5L181.041 343.234C203.972 304.586 256.261 291.719 294.685 308.694L287.92 311.004C298.753 295.554 307.897 277.996 322.221 263.823C327.105 258.978 332.443 254.657 338.036 250.803C338.637 250.39 339.375 250.206 340.102 250.312C340.83 250.417 341.484 250.8 341.925 251.38C342.366 251.96 342.559 252.693 342.466 253.422C342.373 254.151 341.999 254.813 341.44 255.281C341.44 255.281 341.44 255.281 341.44 255.281C336.438 259.471 331.799 263.981 327.644 268.867C315.568 282.955 307.857 300.556 297.598 317.226L294.93 321.125L290.833 319.536C254.918 306.389 212.787 319.596 194.012 350.766L191.84 354.502L187.526 354.499C186.9 354.5 186.274 354.5 185.647 354.5L181.329 354.5L179.161 350.766C179.145 350.739 179.129 350.711 179.113 350.684C159.504 319.916 115.876 307.367 79.5217 320.475L75.0258 321.929L72.7565 318.165C62.4973 301.496 54.7872 283.895 42.7107 269.807C38.556 264.92 33.9164 260.411 28.9151 256.221Z" fill="#1F2937"/>
<path d="M342.23 239.03C343.701 234.251 345.171 229.472 346.642 224.693C343.718 223.875 340.675 223.215 337.76 222.712C284.602 214.016 230.798 239.325 200.589 280.614C198.871 282.871 197.23 285.14 195.591 287.517C197.105 288.623 198.619 289.729 200.133 290.834C201.847 288.62 203.557 286.519 205.335 284.436C236.676 246.229 288.477 226.598 334.913 236.962C337.391 237.536 339.927 238.238 342.23 239.03Z" fill="#1F2937"/>
<path d="M29.0642 239.03C27.5938 234.251 26.1234 229.472 24.6529 224.693C27.5767 223.875 30.619 223.215 33.5344 222.712C86.6925 214.016 140.496 239.325 170.706 280.614C172.423 282.871 174.064 285.14 175.704 287.517C174.19 288.623 172.676 289.729 171.161 290.834C169.447 288.62 167.737 286.519 165.96 284.436C134.619 246.229 82.8171 226.598 36.3819 236.962C33.9034 237.536 31.3677 238.238 29.0642 239.03Z" fill="#1F2937"/>
<path d="M184.461 266.672C184.183 267.635 182.817 267.635 182.539 266.672L175.641 242.777C175.457 242.138 175.937 241.5 176.602 241.5L190.398 241.5C191.063 241.5 191.543 242.138 191.359 242.777L184.461 266.672Z" fill="#818CF8"/>
<path d="M174 139C174 137.343 175.343 136 177 136H190C191.657 136 193 137.343 193 139V232H174V139Z" fill="#818CF8"/>
<circle cx="107.973" cy="49.4646" r="15.9562" transform="rotate(9.25687 107.973 49.4646)" stroke="#1F2937" stroke-width="15"/>
<circle cx="352.15" cy="175.835" r="15.9562" transform="rotate(89.2947 352.15 175.835)" stroke="#1F2937" stroke-width="15"/>
<circle cx="233.5" cy="108.348" r="6.5" fill="#1F2937"/>
<circle cx="181.5" cy="108.348" r="6.5" fill="#1F2937"/>
<circle cx="131.5" cy="108.348" r="6.5" fill="#1F2937"/>
</svg>
