<svg width="380" height="380" viewBox="0 0 380 380" fill="none" xmlns="http://www.w3.org/2000/svg">
<rect width="380" height="380" rx="113" fill="white"/>
<path d="M52.6473 191.036C53.5179 191.124 54.3886 191.211 55.2592 191.298C55.5202 189.052 55.777 186.715 56.0413 184.47C58.711 143.264 81.484 104.56 118.11 86.1906C120.067 85.1231 122.041 84.1004 124.103 83.0853C123.04 81.0085 121.976 78.9316 120.913 76.8547C118.797 77.9791 116.773 79.1119 114.765 80.2916C77.0276 100.584 54.3982 142.696 53.212 184.184C53.0191 186.448 52.8345 188.795 52.6473 191.036Z" fill="#1F2937"/>
<path d="M157.597 70.9197C157.662 71.7923 157.727 72.6649 157.792 73.5375C160.988 73.3324 164.133 73.0709 167.367 72.8506C224.677 65.2136 283.958 95.7053 305.904 149.11C307.219 151.888 308.499 154.764 309.741 157.744C311.885 156.822 314.028 155.9 316.171 154.978C314.819 151.927 313.427 148.981 311.998 146.136C288.155 91.1314 224.563 60.7002 167.14 70.0159C163.893 70.3105 160.742 70.6455 157.597 70.9197Z" fill="#1F2937"/>
<path d="M69.0464 239.864C68.7791 239.649 68.6013 239.339 68.5565 238.997C68.5116 238.655 68.6026 238.31 68.8103 238.036C69.0179 237.763 69.326 237.583 69.6676 237.535C70.0092 237.486 70.3556 237.574 70.6348 237.774C70.6348 237.774 70.6348 237.774 70.6348 237.774C74.8996 240.83 78.9492 244.225 82.6403 248.006C93.4485 259.034 100.348 272.72 108.698 284.946L105.541 283.868C135.588 271.404 175.128 280.354 193.594 309.442C193.611 309.471 193.628 309.499 193.644 309.528L190.617 307.785C191.105 307.785 191.593 307.786 192.081 307.786L189.055 309.528C206.27 280.587 245.419 270.51 274.962 283.136L271.805 284.214C280.155 271.988 287.054 258.302 297.862 247.274C301.554 243.493 305.603 240.098 309.868 237.042C310.147 236.843 310.494 236.754 310.835 236.803C311.177 236.851 311.485 237.031 311.692 237.304C311.9 237.578 311.991 237.923 311.946 238.265C311.901 238.607 311.724 238.917 311.456 239.132C311.456 239.132 311.456 239.132 311.456 239.132C307.468 242.344 303.744 245.828 300.393 249.628C290.634 260.617 284.403 274.322 276.321 287.118L275.114 288.927L273.164 288.196C244.793 277.356 210.384 287.592 195.108 313.043L194.095 314.786L192.081 314.785C191.593 314.785 191.105 314.785 190.617 314.785L188.602 314.785L187.591 313.043C187.577 313.02 187.564 312.997 187.55 312.973C171.474 287.72 136.093 278.151 107.338 288.928L105.277 289.621L104.181 287.85C96.0992 275.054 89.8687 261.349 80.1094 250.36C76.7587 246.56 73.0351 243.076 69.0464 239.864Z" fill="#1F2937"/>
<path d="M313.293 224.932C313.979 222.701 314.665 220.471 315.352 218.241C313.171 217.608 310.88 217.087 308.677 216.684C268.314 209.649 226.711 228.479 202.999 260.164C201.652 261.896 200.362 263.637 199.073 265.463C199.78 265.979 200.487 266.495 201.193 267.011C202.517 265.261 203.838 263.598 205.214 261.948C229.453 231.701 270.122 215.521 307.348 223.334C309.347 223.77 311.402 224.311 313.293 224.932Z" fill="#1F2937"/>
<path d="M67.9419 224.932C67.2557 222.701 66.5695 220.471 65.8833 218.241C68.0642 217.608 70.3552 217.087 72.5582 216.684C112.921 209.649 154.524 228.479 178.236 260.164C179.583 261.896 180.872 263.637 182.161 265.463C181.455 265.979 180.748 266.495 180.042 267.011C178.718 265.261 177.396 263.598 176.021 261.948C151.782 231.701 111.113 215.521 73.887 223.334C71.8879 223.77 69.8334 224.311 67.9419 224.932Z" fill="#1F2937"/>
<path d="M191.578 245.739C191.3 246.703 189.935 246.703 189.656 245.739L185.281 230.581C185.096 229.942 185.576 229.304 186.242 229.304L194.993 229.304C195.658 229.304 196.138 229.942 195.954 230.581L191.578 245.739Z" fill="#818CF8"/>
<path d="M184.029 158.374C184.029 156.717 185.372 155.374 187.029 155.374H194.205C195.862 155.374 197.205 156.717 197.205 158.374V222.716H184.029V158.374Z" fill="#818CF8"/>
<circle cx="130.105" cy="79.4897" r="10.0878" transform="rotate(9.25687 130.105 79.4897)" stroke="#1F2937" stroke-width="7"/>
<circle cx="320.332" cy="177.938" r="10.0878" transform="rotate(89.2947 320.332 177.938)" stroke="#1F2937" stroke-width="7"/>
<circle cx="218.432" cy="125.363" r="3.6599" fill="#1F2937"/>
<circle cx="189.153" cy="125.363" r="3.6599" fill="#1F2937"/>
<circle cx="161.338" cy="125.363" r="3.6599" fill="#1F2937"/>
</svg>
