<svg width="191" height="168" viewBox="0 0 191 168" fill="none" xmlns="http://www.w3.org/2000/svg">
<path d="M0.0914297 83.7294C0.464568 83.7667 0.837704 83.8041 1.21084 83.8414C1.37974 82.3079 1.54597 80.71 1.71739 79.1745C3.35222 50.9912 18.8897 24.1198 44.0496 11.3275C45.3929 10.5841 46.7479 9.87146 48.1631 9.16419C47.7073 8.2741 47.2515 7.38401 46.7957 6.49392C45.3575 7.24807 43.9809 8.00782 42.6162 8.79937C16.9798 22.4157 1.50386 50.7479 0.504836 79.0517C0.364 80.5955 0.228738 82.1978 0.0914297 83.7294Z" fill="#1F2937"/>
<path d="M71.473 1.98027C71.5008 2.35424 71.5286 2.72821 71.5564 3.10218C73.733 2.95325 75.8818 2.76529 78.093 2.60536C117.255 -2.82495 158.297 17.9956 173.529 54.6789C174.442 56.5847 175.33 58.5585 176.193 60.6027C177.111 60.2076 178.03 59.8124 178.948 59.4173C178.039 57.3425 177.102 55.3388 176.141 53.4041C160.095 16.0353 117.206 -4.75926 77.9957 1.3905C75.7789 1.58226 73.6277 1.80172 71.473 1.98027Z" fill="#1F2937"/>
<path d="M11.1631 116.784C11.0469 116.692 10.97 116.559 10.9505 116.412C10.9309 116.265 10.9701 116.116 11.0595 115.998C11.149 115.881 11.2816 115.803 11.4286 115.783C11.5755 115.762 11.7245 115.801 11.8438 115.888C11.8438 115.888 11.8438 115.888 11.8438 115.888C14.7218 117.995 17.4466 120.325 19.9245 122.911C27.1739 130.439 31.8018 139.789 37.4713 148.214L36.1182 147.752C56.4785 139.452 82.9581 145.645 95.2677 165.026C95.2787 165.045 95.2897 165.064 95.3006 165.083L94.0034 164.336C94.3368 164.336 94.6701 164.336 95.0034 164.336L93.7063 165.083C105.219 145.758 131.358 138.854 151.389 147.252L150.036 147.714C155.705 139.289 160.333 129.939 167.582 122.411C170.06 119.825 172.785 117.495 175.663 115.388C175.782 115.301 175.931 115.262 176.078 115.283C176.225 115.303 176.358 115.381 176.447 115.498C176.537 115.616 176.576 115.765 176.556 115.912C176.537 116.059 176.46 116.192 176.344 116.284C176.344 116.284 176.344 116.284 176.344 116.284C173.584 118.458 170.999 120.826 168.667 123.419C161.867 130.931 157.526 140.29 151.971 148.958L151.463 149.73L150.618 149.42C131.089 141.788 106.982 148.76 96.3005 166.589L95.8667 167.336L95.0034 167.336C94.6701 167.336 94.3368 167.336 94.0034 167.336L93.1398 167.336L92.7062 166.589C92.6967 166.573 92.687 166.556 92.6774 166.539C81.3918 148.802 56.6947 142.344 36.8886 149.92L36.014 150.22L35.5356 149.458C29.9808 140.79 25.6397 131.431 18.8399 123.919C16.5078 121.326 13.9228 118.958 11.1631 116.784Z" fill="#1F2937"/>
<path d="M178.062 105.998C178.356 105.042 178.65 104.086 178.945 103.131C177.492 102.7 175.957 102.341 174.478 102.062C147.306 97.1573 119.007 109.683 102.743 131.143C101.819 132.315 100.934 133.495 100.049 134.733C100.352 134.954 100.655 135.175 100.958 135.396C101.857 134.191 102.756 133.045 103.692 131.907C120.182 111.063 148.081 99.6737 173.908 104.912C175.3 105.205 176.733 105.572 178.062 105.998Z" fill="#1F2937"/>
<path d="M9.94455 105.998C9.65046 105.042 9.35638 104.086 9.06229 103.131C10.5152 102.7 12.05 102.341 13.5289 102.062C40.7007 97.1573 69 109.683 85.2641 131.143C86.188 132.315 87.0727 133.495 87.9577 134.733C87.6548 134.954 87.352 135.175 87.0492 135.396C86.1493 134.191 85.2508 133.045 84.3149 131.907C67.8246 111.063 39.9256 99.6737 14.0984 104.912C12.7069 105.205 11.2734 105.572 9.94455 105.998Z" fill="#1F2937"/>
<path d="M94.9642 120.008C94.686 120.971 93.3208 120.971 93.0426 120.008L90.475 111.113C90.2905 110.474 90.7703 109.836 91.4358 109.836L96.571 109.836C97.2365 109.836 97.7164 110.474 97.5318 111.113L94.9642 120.008Z" fill="#818CF8"/>
<path d="M89.5034 62.3358C89.5034 60.679 90.8466 59.3358 92.5034 59.3358H95.5034C97.1603 59.3358 98.5034 60.679 98.5034 62.3358V105.336H89.5034V62.3358Z" fill="#818CF8"/>
<circle cx="52.6687" cy="7.50109" r="6" transform="rotate(9.25687 52.6687 7.50109)" stroke="#1F2937" stroke-width="3"/>
<circle cx="182.608" cy="74.7493" r="6" transform="rotate(89.2947 182.608 74.7493)" stroke="#1F2937" stroke-width="3"/>
<circle cx="113.003" cy="38.8358" r="2.5" fill="#1F2937"/>
<circle cx="93.0034" cy="38.8358" r="2.5" fill="#1F2937"/>
<circle cx="74.0034" cy="38.8358" r="2.5" fill="#1F2937"/>
</svg>
