<svg width="818" height="168" viewBox="0 0 818 168" fill="none" xmlns="http://www.w3.org/2000/svg">
<path d="M0.0914297 83.7294C0.464568 83.7667 0.837704 83.8041 1.21084 83.8414C1.37974 82.3079 1.54597 80.71 1.71739 79.1745C3.35222 50.9912 18.8897 24.1198 44.0496 11.3275C45.3929 10.5841 46.7479 9.87146 48.1631 9.16419C47.7073 8.2741 47.2515 7.38401 46.7957 6.49392C45.3575 7.24807 43.9809 8.00782 42.6162 8.79937C16.9798 22.4157 1.50386 50.7479 0.504836 79.0517C0.364 80.5955 0.228738 82.1978 0.0914297 83.7294Z" fill="#1F2937"/>
<path d="M71.473 1.98027C71.5008 2.35424 71.5286 2.72821 71.5564 3.10218C73.733 2.95325 75.8818 2.76529 78.093 2.60536C117.255 -2.82495 158.297 17.9956 173.529 54.6789C174.442 56.5847 175.33 58.5585 176.193 60.6027C177.111 60.2076 178.03 59.8124 178.948 59.4173C178.039 57.3425 177.102 55.3388 176.141 53.4041C160.095 16.0353 117.206 -4.75926 77.9957 1.3905C75.7789 1.58226 73.6277 1.80172 71.473 1.98027Z" fill="#1F2937"/>
<path d="M11.1631 116.784C11.0469 116.692 10.97 116.559 10.9505 116.412C10.9309 116.265 10.9701 116.116 11.0595 115.998C11.149 115.881 11.2816 115.803 11.4286 115.783C11.5755 115.762 11.7245 115.801 11.8438 115.888C11.8438 115.888 11.8438 115.888 11.8438 115.888C14.7218 117.995 17.4466 120.325 19.9245 122.911C27.1739 130.439 31.8018 139.789 37.4713 148.214L36.1182 147.752C56.4785 139.452 82.9581 145.645 95.2677 165.026C95.2787 165.045 95.2897 165.064 95.3006 165.083L94.0034 164.336C94.3368 164.336 94.6701 164.336 95.0034 164.336L93.7063 165.083C105.219 145.758 131.358 138.854 151.389 147.252L150.036 147.714C155.705 139.289 160.333 129.939 167.582 122.411C170.06 119.825 172.785 117.495 175.663 115.388C175.782 115.301 175.931 115.262 176.078 115.283C176.225 115.303 176.358 115.381 176.447 115.498C176.537 115.616 176.576 115.765 176.556 115.912C176.537 116.059 176.46 116.192 176.344 116.284C176.344 116.284 176.344 116.284 176.344 116.284C173.584 118.458 170.999 120.826 168.667 123.419C161.867 130.931 157.526 140.29 151.971 148.958L151.463 149.73L150.618 149.42C131.089 141.788 106.982 148.76 96.3005 166.589L95.8667 167.336L95.0034 167.336C94.6701 167.336 94.3368 167.336 94.0034 167.336L93.1398 167.336L92.7062 166.589C92.6967 166.573 92.687 166.556 92.6774 166.539C81.3918 148.802 56.6947 142.344 36.8886 149.92L36.014 150.22L35.5356 149.458C29.9808 140.79 25.6397 131.431 18.8399 123.919C16.5078 121.326 13.9228 118.958 11.1631 116.784Z" fill="#1F2937"/>
<path d="M178.062 105.998C178.356 105.042 178.65 104.086 178.945 103.131C177.492 102.7 175.957 102.341 174.478 102.062C147.306 97.1573 119.007 109.683 102.743 131.143C101.819 132.315 100.934 133.495 100.049 134.733C100.352 134.954 100.655 135.175 100.958 135.396C101.857 134.191 102.756 133.045 103.692 131.907C120.182 111.063 148.081 99.6737 173.908 104.912C175.3 105.205 176.733 105.572 178.062 105.998Z" fill="#1F2937"/>
<path d="M9.94455 105.998C9.65046 105.042 9.35638 104.086 9.06229 103.131C10.5152 102.7 12.05 102.341 13.5289 102.062C40.7007 97.1573 69 109.683 85.2641 131.143C86.188 132.315 87.0727 133.495 87.9577 134.733C87.6548 134.954 87.352 135.175 87.0492 135.396C86.1493 134.191 85.2508 133.045 84.3149 131.907C67.8246 111.063 39.9256 99.6737 14.0984 104.912C12.7069 105.205 11.2734 105.572 9.94455 105.998Z" fill="#1F2937"/>
<path d="M94.9642 120.008C94.686 120.971 93.3208 120.971 93.0426 120.008L90.475 111.113C90.2905 110.474 90.7703 109.836 91.4358 109.836L96.571 109.836C97.2365 109.836 97.7164 110.474 97.5318 111.113L94.9642 120.008Z" fill="#818CF8"/>
<path d="M89.5034 62.3358C89.5034 60.679 90.8466 59.3358 92.5034 59.3358H95.5034C97.1603 59.3358 98.5034 60.679 98.5034 62.3358V105.336H89.5034V62.3358Z" fill="#818CF8"/>
<circle cx="52.6687" cy="7.50109" r="6" transform="rotate(9.25687 52.6687 7.50109)" stroke="#1F2937" stroke-width="3"/>
<circle cx="182.608" cy="74.7493" r="6" transform="rotate(89.2947 182.608 74.7493)" stroke="#1F2937" stroke-width="3"/>
<circle cx="113.003" cy="38.8358" r="2.5" fill="#1F2937"/>
<circle cx="93.0034" cy="38.8358" r="2.5" fill="#1F2937"/>
<circle cx="74.0034" cy="38.8358" r="2.5" fill="#1F2937"/>
<path d="M306.623 127.576C305.823 127.522 305.157 127.176 304.623 126.536C304.143 125.949 303.903 125.282 303.903 124.536C303.903 123.629 304.223 122.856 304.863 122.216C305.557 121.576 306.33 121.309 307.183 121.416C307.77 121.469 308.303 121.522 308.783 121.576C309.317 121.576 309.797 121.576 310.223 121.576C311.61 121.576 312.623 121.336 313.263 120.856C313.957 120.322 314.303 119.309 314.303 117.816V62.5358C314.303 61.6825 314.597 60.9625 315.183 60.3758C315.823 59.7891 316.57 59.4958 317.423 59.4958C318.277 59.4958 318.997 59.7891 319.583 60.3758C320.17 60.9625 320.463 61.6825 320.463 62.5358V117.816C320.463 124.376 316.677 127.656 309.103 127.656C308.73 127.656 308.33 127.656 307.903 127.656C307.477 127.656 307.05 127.629 306.623 127.576ZM285.263 110.696C284.517 110.056 284.143 109.256 284.143 108.296C284.143 107.656 284.33 107.069 284.703 106.536C287.37 102.589 289.583 98.4025 291.343 93.9758C293.157 89.4958 294.517 84.8291 295.423 79.9758C295.583 79.2291 295.93 78.6425 296.463 78.2158C297.05 77.7358 297.69 77.4958 298.383 77.4958C299.29 77.4958 300.063 77.8958 300.703 78.6958C301.343 79.4425 301.583 80.2691 301.423 81.1758C300.89 84.2691 300.037 87.5758 298.863 91.0958C297.743 94.5625 296.383 97.9758 294.783 101.336C293.183 104.642 291.37 107.629 289.343 110.296C288.757 111.042 288.01 111.416 287.103 111.416C286.463 111.416 285.85 111.176 285.263 110.696ZM348.703 110.936C348.117 111.362 347.477 111.576 346.783 111.576C345.717 111.576 344.89 111.122 344.303 110.216C342.543 107.496 340.863 104.429 339.263 101.016C337.717 97.6025 336.33 94.1625 335.103 90.6958C333.877 87.2291 332.89 84.0825 332.143 81.2558C332.09 81.0958 332.063 80.8558 332.063 80.5358C332.063 79.7891 332.33 79.0958 332.863 78.4558C333.45 77.8158 334.17 77.4958 335.023 77.4958C335.77 77.4958 336.437 77.7358 337.023 78.2158C337.61 78.6958 337.983 79.3091 338.143 80.0558C339.21 84.8025 340.703 89.3891 342.623 93.8158C344.597 98.2425 346.863 102.429 349.423 106.376C349.85 106.962 350.063 107.602 350.063 108.296C350.063 109.416 349.61 110.296 348.703 110.936ZM442.863 119.336C443.503 119.976 443.823 120.749 443.823 121.656C443.823 122.509 443.557 123.202 443.023 123.736C441.69 125.176 440.277 126.136 438.783 126.616C437.29 127.149 435.503 127.416 433.423 127.416C430.65 127.416 428.303 126.856 426.383 125.736C424.463 124.669 423.503 122.669 423.503 119.736V97.6558C423.503 97.3358 423.343 97.1758 423.023 97.1758H421.103C420.783 97.1758 420.623 97.3358 420.623 97.6558C420.09 104.536 418.383 110.589 415.503 115.816C412.677 121.042 408.73 124.909 403.663 127.416C403.343 127.576 402.997 127.656 402.623 127.656C401.93 127.656 401.317 127.389 400.783 126.856C400.25 126.322 399.983 125.629 399.983 124.776C399.983 123.549 400.597 122.536 401.823 121.736C404.917 119.976 407.343 117.789 409.103 115.176C410.917 112.509 412.25 109.656 413.103 106.616C414.01 103.576 414.57 100.589 414.783 97.6558C414.783 97.3358 414.623 97.1758 414.303 97.1758H410.063C408.73 97.1758 407.583 96.7225 406.623 95.8158C405.717 94.8558 405.263 93.7091 405.263 92.3758V77.9758C405.263 76.6425 405.717 75.5225 406.623 74.6158C407.583 73.6558 408.73 73.1758 410.063 73.1758H422.463C422.677 73.1758 422.863 73.0958 423.023 72.9358C424.73 71.0691 426.223 69.0158 427.503 66.7758C428.783 64.5358 429.77 62.3491 430.463 60.2158C430.677 59.6291 431.05 59.1491 431.583 58.7758C432.117 58.4025 432.677 58.2158 433.263 58.2158C434.063 58.2158 434.73 58.5091 435.263 59.0958C435.85 59.6825 436.143 60.3491 436.143 61.0958C436.143 61.3091 436.09 61.5758 435.983 61.8958C435.45 63.6558 434.73 65.4691 433.823 67.3358C432.917 69.1491 431.903 70.9091 430.783 72.6158C430.517 72.9891 430.623 73.1758 431.103 73.1758H435.103C436.437 73.1758 437.557 73.6558 438.463 74.6158C439.423 75.5225 439.903 76.6425 439.903 77.9758V92.3758C439.903 93.7091 439.423 94.8558 438.463 95.8158C437.557 96.7225 436.437 97.1758 435.103 97.1758H429.743C429.423 97.1758 429.263 97.3358 429.263 97.6558V119.016C429.263 120.296 429.663 121.122 430.463 121.496C431.263 121.816 432.303 121.976 433.583 121.976C434.597 121.976 435.53 121.816 436.383 121.496C437.237 121.176 438.143 120.509 439.103 119.496C439.69 118.909 440.357 118.616 441.103 118.616C441.797 118.616 442.383 118.856 442.863 119.336ZM413.983 70.0558C413.397 68.9891 412.703 67.8958 411.903 66.7758C411.157 65.6558 410.383 64.5891 409.583 63.5758C409.157 62.9891 408.943 62.3758 408.943 61.7358C408.943 60.8291 409.317 60.0825 410.063 59.4958C410.597 59.1225 411.21 58.9358 411.903 58.9358C412.97 58.9358 413.823 59.3625 414.463 60.2158C415.21 61.2291 416.01 62.4291 416.863 63.8158C417.717 65.2025 418.463 66.5625 419.103 67.8958C419.21 68.1091 419.29 68.2958 419.343 68.4558C419.397 68.6158 419.423 68.8025 419.423 69.0158C419.423 70.1358 418.837 70.9625 417.663 71.4958C417.343 71.6558 416.997 71.7358 416.623 71.7358C415.45 71.7358 414.57 71.1758 413.983 70.0558ZM397.263 66.9358H380.703C379.957 66.9358 379.29 66.6691 378.703 66.1358C378.117 65.5491 377.823 64.8558 377.823 64.0558C377.823 63.2558 378.117 62.5891 378.703 62.0558C379.29 61.4691 379.957 61.1758 380.703 61.1758H397.263C398.063 61.1758 398.73 61.4691 399.263 62.0558C399.85 62.5891 400.143 63.2558 400.143 64.0558C400.143 64.8558 399.85 65.5491 399.263 66.1358C398.73 66.6691 398.063 66.9358 397.263 66.9358ZM399.423 77.2558H378.623C377.823 77.2558 377.13 76.9891 376.543 76.4558C376.01 75.8691 375.743 75.1758 375.743 74.3758C375.743 73.5758 376.01 72.9091 376.543 72.3758C377.13 71.7891 377.823 71.4958 378.623 71.4958H399.423C400.223 71.4958 400.89 71.7891 401.423 72.3758C402.01 72.9091 402.303 73.5758 402.303 74.3758C402.303 75.1758 402.01 75.8691 401.423 76.4558C400.89 76.9891 400.223 77.2558 399.423 77.2558ZM433.903 79.3358C433.903 79.0158 433.743 78.8558 433.423 78.8558H411.663C411.343 78.8558 411.183 79.0158 411.183 79.3358V91.0158C411.183 91.3358 411.343 91.4958 411.663 91.4958H433.423C433.743 91.4958 433.903 91.3358 433.903 91.0158V79.3358ZM381.103 81.7358H396.943C397.743 81.7358 398.41 82.0291 398.943 82.6158C399.53 83.2025 399.823 83.8958 399.823 84.6958C399.823 85.4958 399.53 86.1891 398.943 86.7758C398.41 87.3091 397.743 87.5758 396.943 87.5758H381.103C380.303 87.5758 379.61 87.3091 379.023 86.7758C378.437 86.1891 378.143 85.4958 378.143 84.6958C378.143 83.8958 378.437 83.2025 379.023 82.6158C379.61 82.0291 380.303 81.7358 381.103 81.7358ZM396.943 97.8958H381.103C380.303 97.8958 379.61 97.6291 379.023 97.0958C378.437 96.5091 378.143 95.8158 378.143 95.0158C378.143 94.2158 378.437 93.5225 379.023 92.9358C379.61 92.3491 380.303 92.0558 381.103 92.0558H396.943C397.743 92.0558 398.41 92.3491 398.943 92.9358C399.53 93.5225 399.823 94.2158 399.823 95.0158C399.823 95.8158 399.53 96.5091 398.943 97.0958C398.41 97.6291 397.743 97.8958 396.943 97.8958ZM399.983 107.176V122.456C399.983 123.789 399.503 124.909 398.543 125.816C397.637 126.776 396.517 127.256 395.183 127.256H383.103C381.77 127.256 380.623 126.776 379.663 125.816C378.757 124.909 378.303 123.789 378.303 122.456V107.176C378.303 105.842 378.757 104.722 379.663 103.816C380.623 102.856 381.77 102.376 383.103 102.376H395.183C396.517 102.376 397.637 102.856 398.543 103.816C399.503 104.722 399.983 105.842 399.983 107.176ZM383.903 121.496C383.903 121.816 384.063 121.976 384.383 121.976H393.903C394.223 121.976 394.383 121.816 394.383 121.496V108.216C394.383 107.896 394.223 107.736 393.903 107.736H384.383C384.063 107.736 383.903 107.896 383.903 108.216V121.496ZM507.663 72.8558C503.45 70.4025 498.383 68.9358 492.463 68.4558C491.717 68.3491 491.077 68.0291 490.543 67.4958C490.01 66.9625 489.743 66.3225 489.743 65.5758C489.743 64.6158 490.09 63.8158 490.783 63.1758C491.477 62.4825 492.303 62.1891 493.263 62.2958C496.41 62.6158 499.423 63.2025 502.303 64.0558C505.183 64.8558 507.77 65.8958 510.063 67.1758C511.237 67.8691 511.823 68.8825 511.823 70.2158C511.823 71.1758 511.557 71.9225 511.023 72.4558C510.49 72.9891 509.85 73.2558 509.103 73.2558C508.677 73.2558 508.197 73.1225 507.663 72.8558ZM496.223 125.096C495.423 125.042 494.757 124.722 494.223 124.136C493.69 123.549 493.423 122.882 493.423 122.136C493.423 121.229 493.77 120.482 494.463 119.896C495.157 119.256 495.93 118.989 496.783 119.096C497.53 119.149 498.277 119.202 499.023 119.256C499.77 119.256 500.49 119.256 501.183 119.256C505.77 119.256 509.53 118.642 512.463 117.416C515.45 116.189 517.663 114.589 519.103 112.616C520.543 110.642 521.263 108.562 521.263 106.376C521.263 105.256 521.103 104.189 520.783 103.176C520.09 100.669 518.73 98.8025 516.703 97.5758C514.677 96.2958 512.303 95.6558 509.583 95.6558C506.063 95.6558 502.25 96.7491 498.143 98.9358C494.09 101.122 490.383 104.509 487.023 109.096C486.17 110.322 484.997 110.936 483.503 110.936C482.33 110.936 481.343 110.536 480.543 109.736C479.797 108.882 479.423 107.949 479.423 106.936C479.477 103.469 479.743 99.8958 480.223 96.2158C480.757 92.4825 481.45 88.9091 482.303 85.4958C483.21 82.0825 484.223 79.0691 485.343 76.4558C485.877 75.3358 486.783 74.7758 488.063 74.7758C488.97 74.7758 489.69 75.0958 490.223 75.7358C490.81 76.3758 491.103 77.0958 491.103 77.8958C491.103 78.2691 491.023 78.6691 490.863 79.0958C490.117 80.9625 489.343 83.2025 488.543 85.8158C487.743 88.3758 487.05 91.0158 486.463 93.7358C485.93 96.4025 485.557 98.8291 485.343 101.016V101.096C485.343 101.362 485.45 101.549 485.663 101.656C485.877 101.709 486.09 101.602 486.303 101.336C489.983 97.4958 493.877 94.6958 497.983 92.9358C502.09 91.1758 506.01 90.2958 509.743 90.2958C514.01 90.2958 517.717 91.3625 520.863 93.4958C524.01 95.6291 525.983 98.5891 526.783 102.376C526.89 103.016 526.97 103.656 527.023 104.296C527.13 104.936 527.183 105.549 527.183 106.136C527.183 108.536 526.677 110.882 525.663 113.176C524.65 115.416 523.05 117.442 520.863 119.256C518.677 121.069 515.823 122.509 512.303 123.576C508.783 124.642 504.543 125.176 499.583 125.176C499.05 125.176 498.49 125.176 497.903 125.176C497.37 125.176 496.81 125.149 496.223 125.096ZM582.063 118.776C579.877 118.776 577.717 118.056 575.583 116.616C573.503 115.122 571.61 113.069 569.903 110.456C568.25 107.842 566.917 104.829 565.903 101.416C564.89 97.9491 564.383 94.2425 564.383 90.2958C564.383 87.5758 564.65 84.8025 565.183 81.9758C565.77 79.0958 566.677 76.1891 567.903 73.2558C568.383 72.0825 569.317 71.4958 570.703 71.4958C571.61 71.4958 572.33 71.8158 572.863 72.4558C573.397 73.0958 573.663 73.7891 573.663 74.5358C573.663 74.9091 573.583 75.3091 573.423 75.7358C572.25 78.3491 571.397 80.9091 570.863 83.4158C570.383 85.9225 570.143 88.3491 570.143 90.6958C570.143 93.8425 570.517 96.7758 571.263 99.4958C572.01 102.162 572.97 104.509 574.143 106.536C575.37 108.509 576.677 110.056 578.063 111.176C579.45 112.242 580.783 112.776 582.063 112.776C583.13 112.776 584.09 112.349 584.943 111.496C585.797 110.589 586.41 109.229 586.783 107.416C586.943 106.616 587.317 105.949 587.903 105.416C588.543 104.882 589.263 104.616 590.063 104.616C590.97 104.616 591.717 104.989 592.303 105.736C592.943 106.429 593.157 107.229 592.943 108.136C592.09 111.976 590.703 114.722 588.783 116.376C586.917 117.976 584.677 118.776 582.063 118.776ZM620.063 103.656C618.997 103.656 618.143 103.282 617.503 102.536C616.917 101.736 616.623 100.829 616.623 99.8158C616.623 96.0291 615.637 92.6958 613.663 89.8158C611.69 86.8825 608.65 84.8558 604.543 83.7358C603.69 83.4691 602.997 82.9891 602.463 82.2958C601.983 81.5491 601.85 80.7491 602.063 79.8958C602.277 79.0958 602.677 78.4558 603.263 77.9758C603.903 77.4958 604.57 77.2558 605.263 77.2558C605.37 77.2558 605.503 77.2558 605.663 77.2558C605.823 77.2558 605.957 77.2825 606.063 77.3358C609.21 78.1358 612.117 79.6558 614.783 81.8958C617.503 84.0825 619.663 86.8025 621.263 90.0558C622.863 93.3091 623.503 96.9358 623.183 100.936C623.13 101.736 622.783 102.402 622.143 102.936C621.557 103.416 620.863 103.656 620.063 103.656ZM688.863 78.3758C687.37 79.2291 685.797 79.9758 684.143 80.6158C682.49 81.2025 680.757 81.7091 678.943 82.1358C678.623 82.1891 678.41 82.4291 678.303 82.8558C676.81 90.1625 674.73 97.1225 672.063 103.736C669.45 110.349 666.57 116.269 663.423 121.496C663.157 121.976 662.783 122.349 662.303 122.616C661.823 122.829 661.343 122.936 660.863 122.936C660.223 122.936 659.663 122.776 659.183 122.456C658.17 121.869 657.663 120.989 657.663 119.816C657.663 119.229 657.823 118.696 658.143 118.216C664.597 107.389 669.13 96.0825 671.743 84.2958V84.1358C671.743 83.7091 671.503 83.4958 671.023 83.4958C668.997 83.7091 666.917 83.8691 664.783 83.9758C662.703 84.0825 660.57 84.1091 658.383 84.0558C657.583 84.0025 656.89 83.7091 656.303 83.1758C655.77 82.5891 655.503 81.8958 655.503 81.0958C655.503 80.1891 655.797 79.4425 656.383 78.8558C657.023 78.2691 657.77 78.0025 658.623 78.0558C659.37 78.1091 660.09 78.1358 660.783 78.1358C661.477 78.1358 662.17 78.1358 662.863 78.1358C664.517 78.1358 666.143 78.0825 667.743 77.9758C669.343 77.8691 670.89 77.7091 672.383 77.4958C672.81 77.4425 673.05 77.2025 673.103 76.7758C673.423 74.8558 673.69 72.8825 673.903 70.8558C674.117 68.8291 674.277 66.8025 674.383 64.7758C674.437 63.9758 674.757 63.2825 675.343 62.6958C675.93 62.1091 676.623 61.8158 677.423 61.8158C678.33 61.8158 679.077 62.1091 679.663 62.6958C680.303 63.2825 680.597 64.0291 680.543 64.9358C680.49 66.5891 680.383 68.2691 680.223 69.9758C680.117 71.6291 679.93 73.2825 679.663 74.9358V75.0958C679.663 75.6825 679.903 75.8425 680.383 75.5758C681.29 75.3091 682.143 74.9891 682.943 74.6158C683.797 74.1891 684.623 73.7625 685.423 73.3358C685.903 73.0691 686.463 72.9358 687.103 72.9358C688.223 72.9358 689.103 73.3625 689.743 74.2158C690.063 74.6958 690.223 75.2558 690.223 75.8958C690.223 76.9625 689.77 77.7891 688.863 78.3758ZM686.783 84.6958C686.783 83.9491 687.023 83.2825 687.503 82.6958C687.983 82.1091 688.623 81.7891 689.423 81.7358C690.383 81.6291 691.343 81.5491 692.303 81.4958C693.317 81.4425 694.33 81.4158 695.343 81.4158C698.597 81.4158 701.743 81.6825 704.783 82.2158C707.877 82.7491 710.65 83.5491 713.103 84.6158C713.69 84.8291 714.117 85.2025 714.383 85.7358C714.703 86.2158 714.863 86.7491 714.863 87.3358C714.863 88.3491 714.57 89.1225 713.983 89.6558C713.397 90.1358 712.73 90.3758 711.983 90.3758C711.557 90.3758 711.13 90.2958 710.703 90.1358C708.623 89.1758 706.277 88.4291 703.663 87.8958C701.103 87.3625 698.33 87.0958 695.343 87.0958C694.49 87.0958 693.583 87.1225 692.623 87.1758C691.717 87.2291 690.81 87.3091 689.903 87.4158C689.103 87.5225 688.383 87.3091 687.743 86.7758C687.103 86.2425 686.783 85.5491 686.783 84.6958ZM716.783 117.656C716.783 118.349 716.57 119.016 716.143 119.656C715.717 120.296 715.157 120.722 714.463 120.936C712.49 121.469 710.543 121.869 708.623 122.136C706.757 122.402 704.89 122.536 703.023 122.536C699.13 122.536 695.343 121.949 691.663 120.776C687.983 119.602 684.517 117.949 681.263 115.816C680.41 115.229 679.983 114.429 679.983 113.416C679.983 112.829 680.197 112.242 680.623 111.656C681.21 110.856 682.01 110.456 683.023 110.456C683.663 110.456 684.25 110.616 684.783 110.936C687.13 112.429 689.797 113.709 692.783 114.776C695.823 115.789 699.21 116.296 702.943 116.296C704.49 116.296 706.117 116.189 707.823 115.976C709.53 115.762 711.29 115.416 713.103 114.936C713.21 114.882 713.343 114.856 713.503 114.856C713.663 114.856 713.797 114.856 713.903 114.856C714.65 114.856 715.317 115.122 715.903 115.656C716.49 116.136 716.783 116.802 716.783 117.656ZM802.463 96.7758H752.543C751.69 96.7758 750.97 96.4825 750.383 95.8958C749.797 95.3091 749.503 94.5891 749.503 93.7358C749.503 92.8825 749.797 92.1625 750.383 91.5758C750.97 90.9891 751.69 90.6958 752.543 90.6958H802.463C803.317 90.6958 804.037 90.9891 804.623 91.5758C805.21 92.1625 805.503 92.8825 805.503 93.7358C805.503 94.5891 805.21 95.3091 804.623 95.8958C804.037 96.4825 803.317 96.7758 802.463 96.7758Z" fill="#1F2937"/>
</svg>
